<?xml version="1.0" standalone="no"?><!DOCTYPE svg PUBLIC "-//W3C//DTD SVG 1.1//EN" "http://www.w3.org/Graphics/SVG/1.1/DTD/svg11.dtd"><svg t="1676425614616" class="icon" viewBox="0 0 1024 1024" version="1.1" xmlns="http://www.w3.org/2000/svg" p-id="838" xmlns:xlink="http://www.w3.org/1999/xlink" width="200" height="200"><path d="M346.5 949.9c-227.2-227.2-226.9-595.3 0-822.3 10-10 25.4-11.6 37.2-4.2l113.4 70.9c12.3 7.7 17.4 23.2 12 36.7l-56.7 141.8c-5 12.4-17.6 20.1-30.9 18.8l-97.7-9.8c-36.8 101.9-36.1 214.3 0 314.1l97.7-9.8a30.1 30.1 0 0 1 30.9 18.8l56.7 141.8c5.4 13.5 0.4 29-12 36.7l-113.4 70.9c-11.9 7.3-27.3 5.5-37.2-4.4z m262.1-720c20.7 35.1 20.7 78.8 0 113.8-6.9 11.7-22.9 13.9-32.8 4.5l-10.5-10c-6.8-6.6-8.4-16.8-4-25.2 8.7-16.4 8.7-36 0-52.4-4.4-8.4-2.9-18.7 4-25.2l10.5-10c9.9-9.4 25.9-7.2 32.8 4.5zM769.2 70.4c105.2 125.3 105.1 307.7 0 432.9-7.8 9.3-21.9 10.1-30.7 1.6l-10.1-9.7c-8-7.6-8.7-20.2-1.6-28.7 86.9-104.2 86.9-255.3 0-359.4-7.1-8.5-6.4-21 1.6-28.7l10.1-9.7c8.8-8.4 22.9-7.7 30.7 1.7zM688.8 149c63.1 81.1 63.2 194.5 0 275.7-7.7 9.9-22.2 10.9-31.2 2.3l-10.2-9.8c-7.7-7.4-8.7-19.4-2.2-27.9 46.4-60.5 46.4-144.5 0-205-6.5-8.5-5.5-20.5 2.2-27.9l10.2-9.8c9-8.5 23.5-7.5 31.2 2.4z" p-id="839" fill="#14ae66"></path></svg>